<?xml version="1.0" encoding="UTF-8"?>
<!DOCTYPE svg PUBLIC "-//W3C//DTD SVG 1.1//EN" "http://www.w3.org/Graphics/SVG/1.1/DTD/svg11.dtd">
<!-- Creator: CorelDRAW X7 -->
<svg xmlns="http://www.w3.org/2000/svg" xml:space="preserve" width="210mm" height="297mm" version="1.1" style="shape-rendering:geometricPrecision; text-rendering:geometricPrecision; image-rendering:optimizeQuality; fill-rule:evenodd; clip-rule:evenodd"
viewBox="0 0 21000 29700"
 xmlns:xlink="http://www.w3.org/1999/xlink">
 <defs>
  <style type="text/css">
   <![CDATA[
    .fil0 {fill:black}
    .fil1 {fill:white}
   ]]>
  </style>
   <clipPath id="id0">
    <rect x="3728" y="8078" width="13545" height="13545"/>
   </clipPath>
 </defs>
 <g id="Слой_x0020_1">
  <metadata id="CorelCorpID_0Corel-Layer"/>
  <g style="clip-path:url(#id0)">
   <image x="3728" y="8078" width="13545" height="13545" xlink:href="like1_Images\like1_ImgID1.png"/>
  </g>
  <g id="_74671456">
   <path class="fil0" d="M3728 12420l0 785c41,96 99,623 138,794 59,256 127,473 210,714 710,2054 2565,3807 4181,5131 220,181 1985,1493 2243,1493 258,0 1996,-1295 2228,-1481 1410,-1129 2639,-2307 3588,-3873 930,-1536 847,-2527 956,-2779l0 -806c-81,-191 -48,-638 -298,-1270 -416,-1051 -1325,-1892 -2601,-2084 -1293,-195 -2554,373 -3295,1305 -119,150 -212,283 -314,453 -60,101 -206,427 -264,496 -72,-83 -194,-388 -274,-512 -117,-183 -191,-291 -316,-451 -1234,-1583 -3829,-1876 -5312,-170 -835,960 -771,2010 -870,2255z"/>
   <path class="fil1" d="M10500 20720c158,-75 355,-217 502,-315 162,-109 323,-217 483,-336 1056,-788 1781,-1323 2708,-2294 888,-931 2128,-2361 2447,-4190 360,-2064 -680,-3842 -2541,-4004 -1076,-94 -1857,398 -2397,915 -385,369 -729,1041 -870,1618 -59,241 -64,496 -353,475 -267,-19 -259,-274 -317,-495 -385,-1490 -1646,-2684 -3312,-2509 -1827,193 -2849,1952 -2490,4001 490,2803 3380,5289 5622,6808 145,99 367,254 518,326z"/>
   <path class="fil1" d="M3728 21622l13544 0 0 -8418c-109,252 -26,1243 -956,2779 -949,1566 -2178,2744 -3588,3873 -232,186 -1970,1481 -2228,1481 -258,0 -2023,-1312 -2243,-1493 -1616,-1324 -3471,-3077 -4181,-5131 -83,-241 -151,-458 -210,-714 -39,-171 -97,-698 -138,-794l0 8417z"/>
   <path class="fil1" d="M3728 12420c99,-245 35,-1295 870,-2255 1483,-1706 4078,-1413 5312,170 125,160 199,268 316,451 80,124 202,429 274,512 58,-69 204,-395 264,-496 102,-170 195,-303 314,-453 741,-932 2002,-1500 3295,-1305 1276,192 2185,1033 2601,2084 250,632 217,1079 298,1270l0 -4320 -13544 0 0 4342z"/>
  </g>
 </g>
</svg>
